M48
; DRILL file {KiCad 9.0.0} date 2025-12-31T11:37:58+0100
; FORMAT={-:-/ absolute / inch / decimal}
; #@! TF.CreationDate,2025-12-31T11:37:58+01:00
; #@! TF.GenerationSoftware,Kicad,Pcbnew,9.0.0
; #@! TF.FileFunction,MixedPlating,1,2
FMAT,2
INCH
; #@! TA.AperFunction,Plated,PTH,ViaDrill
T1C0.0150
; #@! TA.AperFunction,Plated,PTH,ComponentDrill
T2C0.0315
; #@! TA.AperFunction,Plated,PTH,ComponentDrill
T3C0.0394
%
G90
G05
T1
X4.475Y-2.3391
X4.475Y-2.4109
X4.55Y-2.3391
X4.6Y-3.02
X4.605Y-2.84
X4.615Y-2.795
X4.625Y-2.3391
X4.6253Y-2.465
X4.64Y-2.8931
X4.64Y-2.9516
X4.645Y-2.77
X4.665Y-2.735
X4.725Y-3.05
X4.7271Y-2.92
X4.855Y-2.78
X4.855Y-3.02
X4.885Y-3.18
X4.915Y-2.95
X4.92Y-3.21
T2
X4.0464Y-2.2916
X4.0464Y-2.3916
X4.0464Y-2.4916
X4.0464Y-2.5916
X4.0464Y-2.6916
X4.0464Y-2.7916
X4.0464Y-2.8916
X4.0464Y-2.9916
X4.0464Y-3.0916
X4.3464Y-2.2916
X4.3464Y-2.3916
X4.3464Y-2.4916
X4.3464Y-2.5916
X4.3464Y-2.6916
X4.3464Y-2.7916
X4.3464Y-2.8916
X4.3464Y-2.9916
X4.3464Y-3.0916
T3
X4.075Y-2.15
X4.175Y-2.15
X4.275Y-2.15
X4.375Y-2.15
X4.475Y-2.15
X4.575Y-2.15
M30
