%TF.GenerationSoftware,KiCad,Pcbnew,9.0.0*%
%TF.CreationDate,2025-12-31T11:37:55+01:00*%
%TF.ProjectId,CLA3106 ASIC,434c4133-3130-4362-9041-5349432e6b69,1*%
%TF.SameCoordinates,Original*%
%TF.FileFunction,Paste,Top*%
%TF.FilePolarity,Positive*%
%FSLAX46Y46*%
G04 Gerber Fmt 4.6, Leading zero omitted, Abs format (unit mm)*
G04 Created by KiCad (PCBNEW 9.0.0) date 2025-12-31 11:37:55*
%MOMM*%
%LPD*%
G01*
G04 APERTURE LIST*
G04 Aperture macros list*
%AMRoundRect*
0 Rectangle with rounded corners*
0 $1 Rounding radius*
0 $2 $3 $4 $5 $6 $7 $8 $9 X,Y pos of 4 corners*
0 Add a 4 corners polygon primitive as box body*
4,1,4,$2,$3,$4,$5,$6,$7,$8,$9,$2,$3,0*
0 Add four circle primitives for the rounded corners*
1,1,$1+$1,$2,$3*
1,1,$1+$1,$4,$5*
1,1,$1+$1,$6,$7*
1,1,$1+$1,$8,$9*
0 Add four rect primitives between the rounded corners*
20,1,$1+$1,$2,$3,$4,$5,0*
20,1,$1+$1,$4,$5,$6,$7,0*
20,1,$1+$1,$6,$7,$8,$9,0*
20,1,$1+$1,$8,$9,$2,$3,0*%
G04 Aperture macros list end*
%ADD10RoundRect,0.250000X0.450000X-0.262500X0.450000X0.262500X-0.450000X0.262500X-0.450000X-0.262500X0*%
%ADD11RoundRect,0.250000X-0.450000X0.262500X-0.450000X-0.262500X0.450000X-0.262500X0.450000X0.262500X0*%
%ADD12RoundRect,0.250000X-0.250000X-0.475000X0.250000X-0.475000X0.250000X0.475000X-0.250000X0.475000X0*%
%ADD13R,1.500000X0.600000*%
%ADD14R,0.600000X1.500000*%
G04 APERTURE END LIST*
D10*
%TO.C,R3*%
X115570000Y-61237500D03*
X115570000Y-59412500D03*
%TD*%
D11*
%TO.C,R2*%
X117475000Y-59412500D03*
X117475000Y-61237500D03*
%TD*%
D10*
%TO.C,R1*%
X113665000Y-61237500D03*
X113665000Y-59412500D03*
%TD*%
D12*
%TO.C,C2*%
X119065000Y-63500000D03*
X120965000Y-63500000D03*
%TD*%
%TO.C,C1*%
X119065000Y-65455800D03*
X120965000Y-65455800D03*
%TD*%
D13*
%TO.C,IC1*%
X115154000Y-69406000D03*
X115154000Y-70206000D03*
X115154000Y-71006000D03*
X115154000Y-71806000D03*
X115154000Y-72606000D03*
X115154000Y-73406000D03*
X115154000Y-74206000D03*
X115154000Y-75006000D03*
X115154000Y-75806000D03*
X115154000Y-76606000D03*
X115154000Y-77406000D03*
D14*
X116904000Y-79156000D03*
X117704000Y-79156000D03*
X118504000Y-79156000D03*
X119304000Y-79156000D03*
X120104000Y-79156000D03*
X120904000Y-79156000D03*
X121704000Y-79156000D03*
X122504000Y-79156000D03*
X123304000Y-79156000D03*
X124104000Y-79156000D03*
X124904000Y-79156000D03*
D13*
X126654000Y-77406000D03*
X126654000Y-76606000D03*
X126654000Y-75806000D03*
X126654000Y-75006000D03*
X126654000Y-74206000D03*
X126654000Y-73406000D03*
X126654000Y-72606000D03*
X126654000Y-71806000D03*
X126654000Y-71006000D03*
X126654000Y-70206000D03*
X126654000Y-69406000D03*
D14*
X124904000Y-67656000D03*
X124104000Y-67656000D03*
X123304000Y-67656000D03*
X122504000Y-67656000D03*
X121704000Y-67656000D03*
X120904000Y-67656000D03*
X120104000Y-67656000D03*
X119304000Y-67656000D03*
X118504000Y-67656000D03*
X117704000Y-67656000D03*
X116904000Y-67656000D03*
%TD*%
M02*
