%TF.GenerationSoftware,KiCad,Pcbnew,9.0.0*%
%TF.CreationDate,2025-12-31T11:37:55+01:00*%
%TF.ProjectId,CLA3106 ASIC,434c4133-3130-4362-9041-5349432e6b69,1*%
%TF.SameCoordinates,Original*%
%TF.FileFunction,Copper,L2,Bot*%
%TF.FilePolarity,Positive*%
%FSLAX46Y46*%
G04 Gerber Fmt 4.6, Leading zero omitted, Abs format (unit mm)*
G04 Created by KiCad (PCBNEW 9.0.0) date 2025-12-31 11:37:55*
%MOMM*%
%LPD*%
G01*
G04 APERTURE LIST*
G04 Aperture macros list*
%AMRoundRect*
0 Rectangle with rounded corners*
0 $1 Rounding radius*
0 $2 $3 $4 $5 $6 $7 $8 $9 X,Y pos of 4 corners*
0 Add a 4 corners polygon primitive as box body*
4,1,4,$2,$3,$4,$5,$6,$7,$8,$9,$2,$3,0*
0 Add four circle primitives for the rounded corners*
1,1,$1+$1,$2,$3*
1,1,$1+$1,$4,$5*
1,1,$1+$1,$6,$7*
1,1,$1+$1,$8,$9*
0 Add four rect primitives between the rounded corners*
20,1,$1+$1,$2,$3,$4,$5,0*
20,1,$1+$1,$4,$5,$6,$7,0*
20,1,$1+$1,$6,$7,$8,$9,0*
20,1,$1+$1,$8,$9,$2,$3,0*%
G04 Aperture macros list end*
%TA.AperFunction,ComponentPad*%
%ADD10R,1.700000X1.700000*%
%TD*%
%TA.AperFunction,ComponentPad*%
%ADD11O,1.700000X1.700000*%
%TD*%
%TA.AperFunction,ComponentPad*%
%ADD12RoundRect,0.250000X-0.950000X-0.550000X0.950000X-0.550000X0.950000X0.550000X-0.950000X0.550000X0*%
%TD*%
%TA.AperFunction,ComponentPad*%
%ADD13O,2.400000X1.600000*%
%TD*%
%TA.AperFunction,ViaPad*%
%ADD14C,0.762000*%
%TD*%
%TA.AperFunction,Conductor*%
%ADD15C,0.508000*%
%TD*%
%TA.AperFunction,Conductor*%
%ADD16C,0.203200*%
%TD*%
G04 APERTURE END LIST*
D10*
%TO.P,J2,1,Pin_1*%
%TO.N,+5V*%
X103505000Y-54610000D03*
D11*
%TO.P,J2,2,Pin_2*%
%TO.N,TDI*%
X106045000Y-54610000D03*
%TO.P,J2,3,Pin_3*%
%TO.N,TMS*%
X108585000Y-54610000D03*
%TO.P,J2,4,Pin_4*%
%TO.N,TCK*%
X111125000Y-54610000D03*
%TO.P,J2,5,Pin_5*%
%TO.N,TDO*%
X113665000Y-54610000D03*
%TO.P,J2,6,Pin_6*%
%TO.N,GND*%
X116205000Y-54610000D03*
%TD*%
D12*
%TO.P,J1,1,Pin_1*%
%TO.N,D1*%
X102778000Y-58207000D03*
D13*
%TO.P,J1,2,Pin_2*%
%TO.N,unconnected-(J1-Pin_2-Pad2)*%
X102778000Y-60747000D03*
%TO.P,J1,3,Pin_3*%
%TO.N,Err*%
X102778000Y-63287000D03*
%TO.P,J1,4,Pin_4*%
%TO.N,Dout*%
X102778000Y-65827000D03*
%TO.P,J1,5,Pin_5*%
%TO.N,+5V*%
X102778000Y-68367000D03*
%TO.P,J1,6,Pin_6*%
%TO.N,RES*%
X102778000Y-70907000D03*
%TO.P,J1,7,Pin_7*%
%TO.N,Din*%
X102778000Y-73447000D03*
%TO.P,J1,8,Pin_8*%
%TO.N,En*%
X102778000Y-75987000D03*
%TO.P,J1,9,Pin_9*%
%TO.N,Clk*%
X102778000Y-78527000D03*
%TO.P,J1,10,Pin_10*%
%TO.N,unconnected-(J1-Pin_10-Pad10)*%
X110398000Y-78527000D03*
%TO.P,J1,11,Pin_11*%
%TO.N,D8*%
X110398000Y-75987000D03*
%TO.P,J1,12,Pin_12*%
%TO.N,D7*%
X110398000Y-73447000D03*
%TO.P,J1,13,Pin_13*%
%TO.N,D6*%
X110398000Y-70907000D03*
%TO.P,J1,14,Pin_14*%
%TO.N,D5*%
X110398000Y-68367000D03*
%TO.P,J1,15,Pin_15*%
%TO.N,D4*%
X110398000Y-65827000D03*
%TO.P,J1,16,Pin_16*%
%TO.N,GND*%
X110398000Y-63287000D03*
%TO.P,J1,17,Pin_17*%
%TO.N,D3*%
X110398000Y-60747000D03*
%TO.P,J1,18,Pin_18*%
%TO.N,D2*%
X110398000Y-58207000D03*
%TD*%
D14*
%TO.N,GND*%
X116967000Y-72136000D03*
X120015000Y-77470000D03*
X123317000Y-70612000D03*
X123317000Y-76708000D03*
%TO.N,En*%
X117983000Y-70358000D03*
%TO.N,Din*%
X117221000Y-70993000D03*
%TO.N,Dout*%
X117856000Y-73485400D03*
%TO.N,Err*%
X117856000Y-74971000D03*
%TO.N,D1*%
X116840000Y-76708000D03*
%TO.N,RES*%
X124968000Y-81534000D03*
%TO.N,Clk*%
X124079000Y-80772000D03*
%TO.N,TDI*%
X118491000Y-69469000D03*
%TO.N,TMS*%
X120069000Y-74168000D03*
%TO.N,TCK*%
X124841000Y-74930000D03*
%TO.N,TDI*%
X113665000Y-59412500D03*
%TO.N,TMS*%
X115570000Y-59412500D03*
%TO.N,TCK*%
X117475000Y-59412500D03*
%TO.N,GND*%
X117482185Y-62611000D03*
%TO.N,+5V*%
X113665000Y-61237500D03*
%TD*%
D15*
%TO.N,GND*%
X115425500Y-70594500D02*
X116967000Y-72136000D01*
X115425500Y-63287000D02*
X115425500Y-70594500D01*
X120777000Y-76708000D02*
X120015000Y-77470000D01*
X123317000Y-76708000D02*
X120777000Y-76708000D01*
X123317000Y-70612000D02*
X123317000Y-76708000D01*
D16*
%TO.N,TMS*%
X119253000Y-70827121D02*
X119253000Y-62738000D01*
X120142000Y-71716121D02*
X119253000Y-70827121D01*
X119253000Y-62738000D02*
X117348000Y-60833000D01*
X117348000Y-60833000D02*
X116990500Y-60833000D01*
X116990500Y-60833000D02*
X115570000Y-59412500D01*
X120142000Y-74095000D02*
X120142000Y-71716121D01*
X120069000Y-74168000D02*
X120142000Y-74095000D01*
%TO.N,En*%
X119380000Y-71755000D02*
X117983000Y-70358000D01*
X119380000Y-73660000D02*
X119380000Y-71755000D01*
X119377800Y-73662200D02*
X119380000Y-73660000D01*
X119377800Y-76851833D02*
X119377800Y-73662200D01*
X119253000Y-76976634D02*
X119377800Y-76851833D01*
X117862209Y-78367425D02*
X119253000Y-76976634D01*
X117625435Y-78604199D02*
X117862209Y-78367425D01*
X117290584Y-78604200D02*
X117625434Y-78604200D01*
X117625434Y-78604200D02*
X117625435Y-78604199D01*
X116389419Y-78604200D02*
X117290583Y-78604199D01*
X114874767Y-77424400D02*
X116054567Y-78604200D01*
X104215400Y-77424400D02*
X114874767Y-77424400D01*
X117290583Y-78604199D02*
X117290584Y-78604200D01*
X102778000Y-75987000D02*
X104215400Y-77424400D01*
X116054568Y-78604200D02*
X116389419Y-78604200D01*
X116054567Y-78604200D02*
X116054568Y-78604200D01*
%TO.N,Din*%
X116221993Y-78200000D02*
X117458009Y-78200000D01*
X112697993Y-74676000D02*
X116221993Y-78200000D01*
X118973600Y-76684408D02*
X118973600Y-72745600D01*
X104007000Y-74676000D02*
X112697993Y-74676000D01*
X118973600Y-72745600D02*
X117221000Y-70993000D01*
X117458009Y-78200000D02*
X118973600Y-76684408D01*
X102778000Y-73447000D02*
X104007000Y-74676000D01*
%TO.N,Dout*%
X118569400Y-74198800D02*
X117856000Y-73485400D01*
X118569400Y-76516983D02*
X118569400Y-74198800D01*
X116389418Y-77795800D02*
X117290583Y-77795800D01*
X112983600Y-74389983D02*
X116389418Y-77795800D01*
X112983600Y-71454600D02*
X112983600Y-74389983D01*
X111252000Y-69723000D02*
X112983600Y-71454600D01*
X117290583Y-77795800D02*
X118569400Y-76516983D01*
X106674000Y-69723000D02*
X111252000Y-69723000D01*
X102778000Y-65827000D02*
X106674000Y-69723000D01*
%TO.N,Err*%
X116556843Y-77391600D02*
X117123157Y-77391600D01*
X113387800Y-74222557D02*
X116556843Y-77391600D01*
X117856000Y-76658757D02*
X117856000Y-74971000D01*
X111252000Y-67056000D02*
X113387800Y-69191800D01*
X113387800Y-69191800D02*
X113387800Y-74222557D01*
X117123157Y-77391600D02*
X117856000Y-76658757D01*
X102778000Y-63287000D02*
X106547000Y-67056000D01*
X106547000Y-67056000D02*
X111252000Y-67056000D01*
%TO.N,D1*%
X113792000Y-73660000D02*
X116840000Y-76708000D01*
X113792000Y-66802000D02*
X113792000Y-73660000D01*
X111633000Y-64643000D02*
X113792000Y-66802000D01*
X109214000Y-64643000D02*
X111633000Y-64643000D01*
X102778000Y-58207000D02*
X109214000Y-64643000D01*
D15*
%TO.N,+5V*%
X112395000Y-59967500D02*
X113665000Y-61237500D01*
X112395000Y-57657531D02*
X112395000Y-59967500D01*
X111506469Y-56769000D02*
X112395000Y-57657531D01*
X105664000Y-56769000D02*
X111506469Y-56769000D01*
X103505000Y-54610000D02*
X105664000Y-56769000D01*
D16*
%TO.N,RES*%
X101275400Y-72409600D02*
X102778000Y-70907000D01*
X102605400Y-81650400D02*
X101275400Y-80320400D01*
X124851600Y-81650400D02*
X102605400Y-81650400D01*
X124968000Y-81534000D02*
X124851600Y-81650400D01*
X101275400Y-80320400D02*
X101275400Y-72409600D01*
%TO.N,Clk*%
X109093000Y-80772000D02*
X106848000Y-78527000D01*
X106848000Y-78527000D02*
X102778000Y-78527000D01*
X124079000Y-80772000D02*
X109093000Y-80772000D01*
%TO.N,TCK*%
X124841000Y-66802000D02*
X124841000Y-74930000D01*
X117475000Y-59436000D02*
X124841000Y-66802000D01*
X117475000Y-59412500D02*
X117475000Y-59436000D01*
%TO.N,TDI*%
X115593500Y-61341000D02*
X117178942Y-61341000D01*
X117178942Y-61341000D02*
X118491000Y-62653058D01*
X113665000Y-59412500D02*
X115593500Y-61341000D01*
X118491000Y-62653058D02*
X118491000Y-69469000D01*
D15*
%TO.N,GND*%
X115425500Y-63287000D02*
X110398000Y-63287000D01*
X116101500Y-62611000D02*
X115425500Y-63287000D01*
X117482185Y-62611000D02*
X116101500Y-62611000D01*
%TD*%
M02*
